<svg width="30" height="35" viewBox="0 0 30 35" xmlns="http://www.w3.org/2000/svg"><title>Shape</title><path d="M19.42 21.753A14.866 14.866 0 0 1 29.586 35H27.84c-.452-6.838-6.112-12.25-13.046-12.25h-.004C7.855 22.75 2.197 28.162 1.745 35H0a14.866 14.866 0 0 1 10.164-13.247 11.37 11.37 0 0 1-6.718-10.378C3.446 5.093 8.526 0 14.792 0s11.345 5.093 11.345 11.375a11.37 11.37 0 0 1-6.716 10.378zM14.793 1.75c-5.302 0-9.6 4.31-9.6 9.625S9.49 20.998 14.79 21h.004c5.3-.002 9.598-4.31 9.598-9.625 0-5.316-4.297-9.625-9.6-9.625z" fill="#00C1DE" fill-rule="evenodd"/></svg>