<svg width="35" height="35" viewBox="0 0 35 35" xmlns="http://www.w3.org/2000/svg"><title>Shape</title><path d="M34.916 18.666a3.646 3.646 0 0 0-.228-.75l-.007-.014-.006-.014a5.957 5.957 0 0 0-1.008-1.524c-.444-.494-.87-.847-1.305-1.08a4.273 4.273 0 0 0-.718-.294 3.77 3.77 0 0 0-1.06-.163 3.3 3.3 0 0 0-2.07.74l-.023.016-.02.017c-.168.143-.362.32-.577.53-.193.188-.357.344-.495.475l-.142.135-.005-.004-.102.107-1.096 1.04.043.045-.088.09-3.837 3.96-1.446 1.49-1.303 1.345c-.398.41-.733.758-1 1.042l-.43.45-.06.064c-.25.255-.45.505-.605.753-.128.2-.248.427-.352.67-.1.2-.197.454-.314.818-.102.31-.206.653-.314 1.026-.102.354-.198.696-.29 1.03a8.027 8.027 0 0 0-.22.992c-.122.814.032 1.517.46 2.066.255.322.813.835 1.816.835.125 0 .255-.01.39-.024l.036-.004.036-.006c.213-.034.485-.097.88-.203.336-.09.693-.2 1.093-.33.375-.127.734-.254 1.076-.384.37-.143.652-.264.87-.372.284-.132.558-.303.814-.507a9.248 9.248 0 0 0 1.02-.936c.257-.266.574-.597.957-.996.346-.364.746-.774 1.262-1.295l.01-.01.01-.012 1.43-1.488 3.83-3.952 1.24-1.277-.005-.004.016-.014c.108-.097.228-.212.353-.34.075-.08.165-.168.268-.27.124-.122.26-.26.413-.415l.027-.026.025-.028A3.258 3.258 0 0 0 35 19.502c0-.286-.028-.567-.084-.836zm-8.168 8.053l-1.428 1.49c-.475.477-.904.915-1.285 1.316-.38.398-.696.726-.945.984-.25.257-.4.406-.447.44a5.817 5.817 0 0 1-.41.35 2.266 2.266 0 0 1-.482.297 8.44 8.44 0 0 1-.73.313c-.322.12-.658.24-1.01.358-.35.116-.683.218-1 .303a7.8 7.8 0 0 1-.705.167c-.07.008-.134.012-.193.012-.215 0-.365-.053-.45-.16-.105-.137-.135-.362-.088-.68.024-.172.08-.42.17-.748.09-.326.184-.66.285-1.01.1-.35.198-.674.293-.967.096-.295.173-.498.233-.608.07-.17.15-.328.24-.47.09-.14.218-.296.384-.467.072-.076.24-.25.5-.526.262-.278.59-.617.982-1.02l1.303-1.345 1.446-1.493L27.25 19.3l3.338 3.46-3.838 3.96zm6.408-6.74c-.06.16-.155.313-.286.46-.142.147-.27.275-.384.387-.112.11-.21.21-.294.295a5.42 5.42 0 0 1-.267.257l-3.34-3.443c.144-.135.315-.297.51-.488.196-.192.36-.34.49-.453.167-.133.34-.23.52-.284a1.605 1.605 0 0 1 .525-.075c.172.008.34.034.5.083.16.05.3.106.42.168.25.135.526.37.83.707.304.338.537.69.705 1.06a2.276 2.276 0 0 1 .16.847c0 .16-.03.318-.09.478zM12.064 32.586H4.65c-1.274 0-2.31-1.07-2.31-2.383V4.796c0-1.314 1.036-2.382 2.31-2.382h24.634c1.274 0 2.31 1.068 2.31 2.382v6.467c0 .666.524 1.207 1.17 1.207.646 0 1.17-.54 1.17-1.207V4.796c0-2.644-2.086-4.796-4.65-4.796H4.65C2.086 0 0 2.152 0 4.796v25.408C0 32.848 2.086 35 4.65 35h7.414c.646 0 1.17-.54 1.17-1.207s-.524-1.207-1.17-1.207zm14.19-24.71c0-.666-.525-1.206-1.17-1.206H8.408c-.648 0-1.172.54-1.172 1.207 0 .666.524 1.207 1.17 1.207h16.675c.646 0 1.17-.54 1.17-1.207zM8.408 13.04c-.648 0-1.172.54-1.172 1.206 0 .667.524 1.207 1.17 1.207h11.506c.647 0 1.17-.54 1.17-1.206 0-.666-.523-1.206-1.17-1.206H8.41zm6.53 6.807H8.41c-.648 0-1.172.54-1.172 1.207s.524 1.207 1.17 1.207h6.533c.648 0 1.172-.54 1.172-1.208 0-.666-.524-1.207-1.17-1.207z" fill="#00C1DE" fill-rule="evenodd"/></svg>