<svg width="35" height="35" viewBox="0 0 35 35" xmlns="http://www.w3.org/2000/svg"><title>Shape</title><path d="M33.623 10.687a17.45 17.45 0 0 0-3.75-5.56 17.43 17.43 0 0 0-5.56-3.75A17.41 17.41 0 0 0 17.5 0 17.45 17.45 0 0 0 5.126 5.126a17.43 17.43 0 0 0-3.75 5.56A17.41 17.41 0 0 0 0 17.5a17.45 17.45 0 0 0 5.126 12.374 17.43 17.43 0 0 0 5.56 3.75A17.395 17.395 0 0 0 17.5 35a17.45 17.45 0 0 0 12.374-5.126 17.43 17.43 0 0 0 3.75-5.56A17.395 17.395 0 0 0 35 17.5a17.41 17.41 0 0 0-1.377-6.813zM17.5 33.175c-8.642 0-15.675-7.033-15.675-15.675S8.858 1.825 17.5 1.825 33.175 8.858 33.175 17.5 26.142 33.175 17.5 33.175zm7.8-21.626a.916.916 0 0 0-1.29.07l-8.695 9.69-4.467-4.005a.916.916 0 0 0-1.29.07.916.916 0 0 0 .07 1.29l5.127 4.595c.004.004.008.004.012.008l.008.01a.916.916 0 0 0 1.29-.072l9.306-10.37a.91.91 0 0 0-.07-1.287z" fill="#373D41" fill-rule="evenodd"/></svg>