<svg width="35" height="35" viewBox="0 0 35 35" xmlns="http://www.w3.org/2000/svg"><title>Shape</title><path d="M29.874 5.126a17.43 17.43 0 0 0-5.56-3.75A17.41 17.41 0 0 0 17.5 0 17.45 17.45 0 0 0 5.126 5.126a17.43 17.43 0 0 0-3.75 5.56A17.41 17.41 0 0 0 0 17.5a17.45 17.45 0 0 0 5.126 12.374 17.43 17.43 0 0 0 5.56 3.75A17.395 17.395 0 0 0 17.5 35a17.45 17.45 0 0 0 12.374-5.126 17.43 17.43 0 0 0 3.75-5.56A17.395 17.395 0 0 0 35 17.5a17.45 17.45 0 0 0-5.126-12.374zM1.824 17.5C1.825 8.858 8.86 1.825 17.5 1.825S33.175 8.858 33.175 17.5 26.142 33.175 17.5 33.175 1.825 26.142 1.825 17.5zm22.187-5.88l-8.695 9.69-4.467-4.005a.916.916 0 0 0-1.29.07.916.916 0 0 0 .07 1.29l5.127 4.595a.924.924 0 0 0 1.31-.054l9.306-10.37a.91.91 0 1 0-1.36-1.216z" fill="#00C1DE" fill-rule="evenodd"/></svg>