<svg width="35" height="36" viewBox="0 0 35 36" xmlns="http://www.w3.org/2000/svg"><title>Shape</title><path d="M25.938 12.85v2.057h4.944a2.06 2.06 0 0 1 2.06 2.06v14.642a2.06 2.06 0 0 1-2.06 2.057H4.118a2.06 2.06 0 0 1-2.06-2.058V16.965a2.06 2.06 0 0 1 2.06-2.06h4.944V12.85H4.118A4.118 4.118 0 0 0 0 16.965v14.642a4.118 4.118 0 0 0 4.118 4.118h26.764A4.118 4.118 0 0 0 35 31.608V16.966a4.118 4.118 0 0 0-4.118-4.117h-4.944zM16.47 3.456V22.73a1.03 1.03 0 0 0 2.06 0V3.576l5.604 5.615a1.027 1.027 0 0 0 1.457.003 1.03 1.03 0 0 0 .002-1.455L18.172.303a1.025 1.025 0 0 0-1.456 0L9.28 7.736a1.03 1.03 0 0 0 1.456 1.455l5.735-5.735z" fill="#373D41" fill-rule="evenodd"/></svg>