<svg width="35" height="35" viewBox="0 0 35 35" xmlns="http://www.w3.org/2000/svg"><title>Shape</title><path d="M8.75 0A8.75 8.75 0 0 0 0 8.75v17.5A8.75 8.75 0 0 0 8.75 35H12.03a1.094 1.094 0 0 0 0-2.188h-1.093c-5.776.17-8.644-2.38-8.75-8.75V10.937c.002-5.893 1.447-8.75 8.75-8.75h13.125c6.793 0 9.078 2.524 8.75 8.75v1.094a1.093 1.093 0 0 0 2.188 0V8.75A8.75 8.75 0 0 0 26.25 0H8.75zm9.945 16.102A7 7 0 0 0 15.4 20.49a1.254 1.254 0 0 0 1.23 1.54 1.26 1.26 0 0 0 1.226-.956 4.465 4.465 0 0 1 2.108-2.807 1.244 1.244 0 0 0 .454-1.712 1.265 1.265 0 0 0-1.723-.453zm12.218 13.083a11.056 11.056 0 0 0 2.55-7.07c0-6.162-5.047-11.172-11.255-11.172-6.204 0-11.252 5.01-11.252 11.17s5.048 11.172 11.252 11.174c2.598 0 4.986-.887 6.894-2.36l3.723 3.695c.248.248.573.367.893.367.32 0 .645-.12.89-.368a1.242 1.242 0 0 0 0-1.77l-3.695-3.667zm-17.436-7.07c0-4.78 3.918-8.67 8.73-8.67 4.816 0 8.734 3.89 8.734 8.67 0 4.778-3.917 8.666-8.732 8.666-4.813 0-8.73-3.887-8.73-8.666z" fill="#373D41" fill-rule="evenodd"/></svg>